<svg xmlns="http://www.w3.org/2000/svg" width="24" height="24" viewBox="0 0 24 24" version="1.1">
   <rect width="24" height="24" fill="#fff" rx="3" />
   <path
      d="M16.123 7.754a7.44 7.44 0 0 1-3.141 8.005 7.31 7.31 0 0 1-8.537-.383 7.44 7.44 0 0 1-2.422-8.255A7.36 7.36 0 0 1 8.98 2.123h13.131a.27.27 0 0 1 .258.347q-.057.195-.111.388a1.98 1.98 0 0 1-1.897 1.435H8.981A5.21 5.21 0 0 0 3.99 8.044a5.26 5.26 0 0 0 2.147 5.885 5.176 5.176 0 0 0 6.21-.393 5.25 5.25 0 0 0 1.706-2.82c.117-.51.157-1.011.121-1.533a5.2 5.2 0 0 0-.24-1.258c-.027-.083-.031-.153.012-.234a.27.27 0 0 1 .238-.144h1.68c.124 0 .231.085.26.207zM8.98 4.836a4.67 4.67 0 0 0-4.267 2.797 4.73 4.73 0 0 0 .29 4.363q.06.1.126.198c.062.09.122.142.237.142a.27.27 0 0 0 .262-.195q.572-1.98 1.143-3.962c.2-.695.833-1.173 1.55-1.173h9.347c.88 0 1.651-.584 1.897-1.435q.055-.195.111-.388a.27.27 0 0 0-.258-.347zM5.917 18.558l-.122.424c-.015.05-.064.09-.114.09h-.92c-.212 0-.31.074-.375.311l-.116.411h1.173c.046 0 .07.032.065.073l-.001.018-.118.434a.13.13 0 01-.119.091h-1.173l-.37 1.334a.13.13 0 01-.119.09h-.588c-.046 0-.07-.031-.065-.072l.001-.018.66-2.36c.239-.863.749-.98 1.374-.98.49 0 .708.04.858.064.053.008.08.028.076.069 0 .004-.006.014-.007.022zM8.548 18.554l-.12.423c-.016.05-.065.092-.115.092h-.92c-.185 0-.302.036-.376.306l-.115.42h1.173c.046 0 .07.031.064.076v.014l-.119.434a.13.13 0 01-.118.091h-1.173l-.137.484a1 1 0 00-.026.12c-.015.146.057.192.23.192h.92c.045 0 .073.032.068.077q0 .006-.002.014l-.121.426c-.015.058-.05.087-.114.095-.166.022-.396.059-.885.059s-.947-.168-.886-.758c.007-.069.024-.146.046-.223l.425-1.516c.246-.885.758-.977 1.38-.977.488 0 .703.037.853.06.053.008.08.022.075.062 0 .009-.007.019-.007.029zM10.79 20.109c.187.119.263.342.241.553-.099.954-.96 1.214-1.748 1.214-.3 0-.655-.023-.824-.055-.142-.028-.202-.069-.188-.197.003-.026.011-.063.02-.1l.774-2.775c.059-.205.141-.27.326-.297.162-.022.545-.05.835-.05.747 0 1.245.219 1.187.78-.04.38-.243.762-.623.927m-.907.269h-.507l-.238.853.37.005c.377 0 .716-.092.764-.544.018-.178-.077-.314-.389-.314m.212-1.337c-.073 0-.28 0-.344.004l-.223.79h.507c.344 0 .566-.169.603-.525.021-.2-.135-.27-.543-.27zM12.934 18.531l-.897 3.213c-.015.05-.064.09-.114.09h-.606c-.04 0-.06-.031-.056-.068 0-.01 0-.014.003-.022l.897-3.213c.014-.05.054-.087.105-.087h.607c.045 0 .07.028.065.069v.018zM15.836 19.417l-.646 2.327a.13.13 0 01-.119.09h-.597c-.046 0-.06-.031-.056-.072 0-.004.001-.014.003-.018l.305-1.11h-.984l-.306 1.11a.13.13 0 01-.114.09h-.598c-.046 0-.068-.036-.064-.078l.001-.014.647-2.327c.24-.867.716-1.005 1.382-1.005h.33c.507 0 .922.197.862.768q-.013.108-.047.237zm-1.003-.329h-.33c-.25 0-.348.077-.42.329l-.16.575h.984l.159-.575a1 1 0 00.026-.128c.016-.15-.055-.2-.259-.2zM18.736 18.582l-.123.442a.12.12 0 01-.118.09h-.01c-.166-.013-.408-.036-.658-.036-.312 0-.606.165-.779.772l-.164.576q-.044.156-.057.278c-.04.379.148.492.407.492s.5-.022.678-.036h.014c.045 0 .074.022.07.069 0 .004-.007.014-.007.022l-.128.442c-.021.063-.059.087-.129.105a2.8 2.8 0 01-.696.078c-.594 0-1.081-.365-1.003-1.115q.015-.159.067-.337l.164-.575c.343-1.2 1.021-1.447 1.746-1.447.316 0 .565.046.653.077.053.018.078.032.074.077v.024z"
      fill="#133370" />
</svg>